<?xml version="1.0" encoding="UTF-8" standalone="no"?>
<!-- Created with Inkscape (http://www.inkscape.org/) -->

<svg
   xmlns:dc="http://purl.org/dc/elements/1.1/"
   xmlns:cc="http://creativecommons.org/ns#"
   xmlns:rdf="http://www.w3.org/1999/02/22-rdf-syntax-ns#"
   xmlns:svg="http://www.w3.org/2000/svg"
   xmlns="http://www.w3.org/2000/svg"
   xmlns:sodipodi="http://sodipodi.sourceforge.net/DTD/sodipodi-0.dtd"
   xmlns:inkscape="http://www.inkscape.org/namespaces/inkscape"
   version="1.0"
   width="580"
   height="580"
   id="svg2"
   inkscape:version="0.48.1 r9760"
   sodipodi:docname="fuel_cng.svg">
  <sodipodi:namedview
     pagecolor="#ffffff"
     bordercolor="#666666"
     borderopacity="1"
     objecttolerance="10"
     gridtolerance="10"
     guidetolerance="10"
     inkscape:pageopacity="0"
     inkscape:pageshadow="2"
     inkscape:window-width="640"
     inkscape:window-height="480"
     id="namedview24"
     showgrid="false"
     inkscape:zoom="0.49655172"
     inkscape:cx="290"
     inkscape:cy="315.17361"
     inkscape:window-x="596"
     inkscape:window-y="132"
     inkscape:window-maximized="0"
     inkscape:current-layer="svg2" />
  <metadata
     id="metadata10">
    <rdf:RDF>
      <cc:Work
         rdf:about="">
        <dc:format>image/svg+xml</dc:format>
        <dc:type
           rdf:resource="http://purl.org/dc/dcmitype/StillImage" />
        <cc:license
           rdf:resource="http://web.resource.org/cc/PublicDomain" />
        <dc:language>en</dc:language>
        <dc:title />
      </cc:Work>
    </rdf:RDF>
  </metadata>
  <defs
     id="defs4">
    <style
       type="text/css"
       id="style6" />
    <marker
       markerUnits="strokeWidth"
       refX="10"
       refY="5"
       markerWidth="4"
       markerHeight="3"
       orient="auto"
       viewBox="0 0 10 10"
       id="ArrowStart">
      <path
         d="M 10,0 0,5 10,10 z"
         id="path2295" />
    </marker>
    <marker
       markerUnits="strokeWidth"
       refX="0"
       refY="5"
       markerWidth="4"
       markerHeight="3"
       orient="auto"
       viewBox="0 0 10 10"
       id="ArrowEnd">
      <path
         d="M 0,0 10,5 0,10 z"
         id="path2292" />
    </marker>
    <marker
       markerUnits="strokeWidth"
       refX="10"
       refY="5"
       markerWidth="4"
       markerHeight="3"
       orient="auto"
       viewBox="0 0 10 10"
       id="marker8025">
      <path
         d="M 10,0 0,5 10,10 10,0 z"
         id="path8027" />
    </marker>
    <marker
       markerUnits="strokeWidth"
       refX="0"
       refY="5"
       markerWidth="4"
       markerHeight="3"
       orient="auto"
       viewBox="0 0 10 10"
       id="marker8021">
      <path
         d="M 0,0 10,5 0,10 0,0 z"
         id="path8023" />
    </marker>
  </defs>
  <g
     id="g1327">
    <path
       d="M 66.275,1.768 C 24.94,1.768 1.704,23.139 1.704,66.804 l 0,450.123 c 0,40.844 20.894,62.229 62.192,62.229 l 452.024,0 c 41.307,0 62.229,-20.316 62.229,-62.229 l 0,-450.123 c 0,-42.601 -20.922,-65.036 -63.522,-65.036 -0.003,0 -448.494,-0.143 -448.352,0 z"
       id="path1329"
       style="fill:#111111;stroke:#eeeeee;stroke-width:3.40799999" />
  </g>
  <g
     transform="translate(879.29125,36.805119)"
     id="g2319">
    <path
       d=""
       id="path2323"
       style="fill:#ffffff;stroke:none" />
  </g>
  <g
     transform="translate(879.29125,36.805119)"
     id="g2325">
    <path
       d=""
       id="path2329"
       style="fill:#ffffff;stroke:none" />
  </g>
  <path
     d="m 229,31.75 c -8.48242,-1e-6 -16.9375,6.130636 -16.9375,15.9375 l -0.1875,315.25 17.4375,0 0.15625,24.9375 160.09375,-0.0937 0.125,-24.84375 15,0.125 0,-318.625 C 404.68751,37.641424 400.75087,31.75 393.34375,31.75 L 229,31.75 z m 26.78125,34.84375 104.90625,0 c 5.80827,0 10.37501,2.365513 10.375,10.375 l 0,82.875 c 0,5.61371 -3.00087,9.6875 -9.40625,9.6875 L 256.0625,169.25 c -6.09827,0 -11.34375,-4.50537 -11.34375,-11.0625 l 0.53125,-81.5 c 0,-6.523696 4.51979,-10.093754 10.53125,-10.09375 z"
     id="path1897"
     style="fill:#ffffff;fill-opacity:1;fill-rule:evenodd;stroke:none" />
  <path
     d="m 212.83211,140.10791 -16.02161,-0.0949 c -0.10388,65.19305 0.37125,193.85491 0.64277,196.05634 0.5796,4.69931 0.22912,9.56779 -0.97746,14.00308 -25.11647,63.27313 -106.388051,34.21172 -94.84854,-27.3567 25.3448,-61.07053 60.88334,-102.39502 78.57086,-174.42538 l 1.57455,53.54482 c -15.91818,30.97568 -44.00102,85.37648 -65.77992,130.84982 -1.83488,41.98386 48.10886,55.81624 63.75073,10.75222 6.97053,-78.88168 -0.26208,-164.86493 -0.39311,-247.2974 10.16452,-30.217271 21.38001,-33.109689 32.76209,-31.670448"
     id="path1899"
     style="fill:#ffffff;fill-opacity:1;fill-rule:evenodd;stroke:none" />
  <text
     x="122.83557"
     y="526.25995"
     id="text3009"
     xml:space="preserve"
     style="font-size:144px;font-style:normal;font-variant:normal;font-weight:bold;font-stretch:normal;text-align:start;line-height:125%;letter-spacing:0px;word-spacing:0px;writing-mode:lr-tb;text-anchor:start;fill:#ffffff;fill-opacity:1;stroke:none;font-family:Sans;-inkscape-font-specification:Sans Bold"
     sodipodi:linespacing="125%"><tspan
       x="122.83557"
       y="526.25995"
       id="tspan3011"
       style="font-size:144px;font-style:normal;font-variant:normal;font-weight:bold;font-stretch:normal;text-align:start;line-height:125%;writing-mode:lr-tb;text-anchor:start;fill:#ffffff;fill-opacity:1;font-family:Sans;-inkscape-font-specification:Sans Bold">CNG</tspan></text>
</svg>
