<?xml version="1.0" encoding="UTF-8" standalone="no"?>
<!-- Created with Inkscape (http://www.inkscape.org/) -->

<svg
   xmlns:dc="http://purl.org/dc/elements/1.1/"
   xmlns:cc="http://creativecommons.org/ns#"
   xmlns:rdf="http://www.w3.org/1999/02/22-rdf-syntax-ns#"
   xmlns:svg="http://www.w3.org/2000/svg"
   xmlns="http://www.w3.org/2000/svg"
   version="1.0"
   width="580"
   height="580"
   id="svg2">
  <defs
     id="defs22" />
  <metadata
     id="metadata10">
    <rdf:RDF>
      <cc:Work
         rdf:about="">
        <dc:format>image/svg+xml</dc:format>
        <dc:type
           rdf:resource="http://purl.org/dc/dcmitype/StillImage" />
        <cc:license
           rdf:resource="http://web.resource.org/cc/PublicDomain" />
        <dc:language>en</dc:language>
        <dc:title></dc:title>
      </cc:Work>
    </rdf:RDF>
  </metadata>
  <g
     id="g1327">
    <path
       d="M 66.275,1.768 C 24.94,1.768 1.704,23.139 1.704,66.804 l 0,450.123 c 0,40.844 20.894,62.229 62.192,62.229 l 452.024,0 c 41.307,0 62.229,-20.316 62.229,-62.229 l 0,-450.123 c 0,-42.601 -20.922,-65.036 -63.522,-65.036 -0.003,0 -448.494,-0.143 -448.352,0 z"
       id="path1329"
       style="fill:#111111;stroke:#eeeeee;stroke-width:3.40799999" />
  </g>
  <g
     transform="translate(879.29125,36.805119)"
     id="g2319">
    <path
       d=""
       id="path2323"
       style="fill:#ffffff;stroke:none" />
  </g>
  <g
     transform="translate(879.29125,36.805119)"
     id="g2325">
    <path
       d=""
       id="path2329"
       style="fill:#ffffff;stroke:none" />
  </g>
  <path
     d="m 49.755618,424.59749 0,-369.87536 139.523252,0 c 24.55723,3.6e-4 43.3117,1.17778 56.26345,3.53223 18.16552,3.02799 33.38775,8.78889 45.66674,17.28272 12.27842,8.49452 22.16026,20.39477 29.64553,35.70078 7.48466,15.30665 11.22714,32.12679 11.22746,50.46049 -3.2e-4,31.45393 -10.00831,58.07181 -30.02399,79.85372 -20.01626,21.78227 -56.17958,32.67332 -108.49005,32.67317 l -94.865722,0 0,150.37225 -48.94667,0 z m 48.94667,-194.02058 95.622632,0 c 31.62169,2e-4 54.07658,-5.88685 67.36475,-17.66117 13.28766,-11.77389 19.93162,-28.34173 19.93189,-49.70358 -2.7e-4,-15.47427 -3.91095,-28.72013 -11.73206,-39.73763 -7.82163,-11.0169 -18.12397,-18.29161 -30.90705,-21.82415 -8.2421,-2.1863 -23.46433,-3.27961 -45.66674,-3.27993 l -94.613422,0 0,132.20646 z"
     id="text2419"
     style="font-size:143.53205872px;font-style:normal;font-weight:normal;fill:#ffffff;fill-opacity:1;stroke:none;font-family:Bitstream Vera Sans" />
  <g
     transform="matrix(1.389856,0,0,1.3496208,-216.52476,-192.39984)"
     id="g3249">
    <path
       d="m 359.24612,364.2404 c -12.827,0 -19.63143,7.0027 -22.77277,15.19961 l -16.67514,43.05671 c -6.61033,0.84761 -18.32842,8.60691 -18.32842,23.30608 l 0,54.75417 16.2307,0 0,17.51068 c 0,21.54328 30.48811,21.28955 30.48813,0 l 0,-17.51068 54.84306,0 0.0178,0 54.84305,0 0,17.51068 c 0,21.28955 30.48798,21.54328 30.48815,0 l 0,-17.51068 16.23067,0 0,-54.75417 c 0,-14.69915 -11.71802,-22.45847 -18.32845,-23.30608 l -16.69288,-43.05671 c -3.14134,-8.19691 -9.9457,-15.19961 -22.77279,-15.19961 l -23.57269,0 -40.14128,0 -23.85715,0 z m -0.19556,15.6796 43.94556,0 0.0356,0 0.0178,0 43.9633,0 c 5.49703,0.0512 7.85133,3.48891 9.42198,8.24867 l 12.56855,33.88361 -65.95383,0 -0.0178,0 -0.0356,0 -65.93612,0 12.56858,-33.88361 c 1.57067,-4.75976 3.92437,-8.19747 9.42198,-8.24867 z m -25.61712,58.61186 c 7.77822,0 14.07963,6.48972 14.07963,14.5063 0,8.01716 -6.30141,14.52409 -14.07963,14.52409 -7.77767,0 -14.07965,-6.50694 -14.07965,-14.52409 0,-8.01657 6.30198,-14.5063 14.07965,-14.5063 z m 139.21426,0 c 7.77824,0 14.07971,6.48973 14.07965,14.5063 0,8.01715 -6.30141,14.52409 -14.07965,14.52409 -7.77764,0 -14.09745,-6.50693 -14.09745,-14.52409 0,-8.01658 6.31981,-14.5063 14.09745,-14.5063 z"
       id="path2301"
       style="fill:#ffffff;stroke:none" />
    <path
       d="m 401.10153,384.63165 c -2.77092,1e-4 -5.18194,0.99291 -7.23447,2.97252 -2.05234,1.97981 -3.08068,4.38568 -3.08078,7.22657 9e-5,2.84419 1.02844,5.26212 3.08078,7.24174 2.05253,1.9798 4.46355,2.96503 7.23447,2.96495 0.10218,0 0.20549,-0.005 0.30655,-0.008 0.10222,0.002 0.20321,0.008 0.30655,0.008 2.77093,8e-5 5.18196,-0.98515 7.23448,-2.96495 2.05234,-1.97962 3.07302,-4.39755 3.07311,-7.24174 -9e-5,-2.84089 -1.02077,-5.24676 -3.07311,-7.22657 -2.05252,-1.97961 -4.46355,-2.97242 -7.23448,-2.97252 -0.10332,0 -0.20437,0.005 -0.30655,0.008 -0.10104,-0.002 -0.2044,-0.008 -0.30655,-0.008 z m -7.84756,22.68825 c -0.62675,2e-5 -1.19313,0.0694 -1.70133,0.20474 a 8.7901541,8.6976307 0 0 0 -1.00394,-0.0379 8.7901541,8.6976307 0 0 0 -8.57561,8.89483 l 0.18393,20.28445 a 8.7901541,8.6976307 0 0 0 6.17689,8.46259 l 0,2.54031 0,0.77345 13.07417,-0.37914 13.08183,0.37914 0,-0.77345 0,-2.92703 a 8.7901541,8.6976307 0 0 0 5.14997,-8.23511 l -0.18393,-20.28446 a 8.7901541,8.6976307 0 0 0 -8.26139,-8.71284 c -0.48918,-0.12257 -1.02811,-0.18956 -1.62469,-0.18957 l -16.3159,0 z"
       id="path20631-1"
       style="font-size:40px;font-style:normal;font-variant:normal;font-weight:normal;font-stretch:normal;text-align:start;line-height:125%;writing-mode:lr-tb;text-anchor:start;fill:#ffffff;fill-opacity:1;stroke:#ffffff;stroke-width:0.40035656;stroke-linecap:round;stroke-linejoin:round;stroke-opacity:1;font-family:NPSPICT3;-inkscape-font-specification:NPSPICT3" />
    <g
       id="g3246">
      <path
         d="m 432.35789,382.69779 c -3.68634,1.3e-4 -6.89388,1.32093 -9.6245,3.95454 -2.73036,2.63387 -4.09843,5.83456 -4.09857,9.61399 1.2e-4,3.78381 1.36821,7.00055 4.09857,9.63417 2.73062,2.63386 5.93816,3.94458 9.6245,3.94447 0.13594,0 0.27338,-0.007 0.40782,-0.0106 0.13599,0.003 0.27035,0.0106 0.40783,0.0106 3.68635,1.1e-4 6.8939,-1.31061 9.62451,-3.94447 2.73036,-2.63362 4.08824,-5.85036 4.08836,-9.63417 -1.2e-4,-3.77943 -1.358,-6.98012 -4.08836,-9.61399 -2.73061,-2.63361 -5.93816,-3.95441 -9.62451,-3.95454 -0.13746,0 -0.27189,0.007 -0.40783,0.0106 -0.13442,-0.003 -0.27192,-0.0106 -0.40782,-0.0106 z m -10.44013,30.18369 c -0.83381,3e-5 -1.5873,0.0923 -2.2634,0.27238 a 11.694129,11.571039 0 0 0 -1.33561,-0.0504 11.694129,11.571039 0 0 0 -11.4087,11.83339 l 0.24469,26.98575 a 11.694129,11.571039 0 0 0 8.21753,11.25835 l 0,3.37955 0,1.02897 17.39344,-0.5044 17.40363,0.5044 0,-1.02897 0,-3.89403 a 11.694129,11.571039 0 0 0 6.85135,-10.95571 L 456.776,424.72499 a 11.694129,11.571039 0 0 0 -10.99068,-11.59128 c -0.65079,-0.16306 -1.36776,-0.25218 -2.16143,-0.25219 l -21.70613,0 z"
         id="path20631-3"
         style="font-size:40px;font-style:normal;font-variant:normal;font-weight:normal;font-stretch:normal;text-align:start;line-height:125%;writing-mode:lr-tb;text-anchor:start;fill:#ffffff;fill-opacity:1;stroke:#ffffff;stroke-width:0.53262103;stroke-linecap:round;stroke-linejoin:round;stroke-opacity:1;font-family:NPSPICT3;-inkscape-font-specification:NPSPICT3" />
    </g>
    <path
       d="m 372.91416,384.23331 c -3.68634,1.3e-4 -6.89388,1.32093 -9.6245,3.95454 -2.73036,2.63387 -4.09843,5.83456 -4.09857,9.61399 1.2e-4,3.78381 1.36821,7.00055 4.09857,9.63417 2.73062,2.63386 5.93816,3.94458 9.6245,3.94447 0.13594,0 0.27338,-0.007 0.40782,-0.0106 0.13599,0.003 0.27035,0.0106 0.40783,0.0106 3.68635,1.1e-4 6.8939,-1.31061 9.62451,-3.94447 2.73036,-2.63362 4.08824,-5.85036 4.08836,-9.63417 -1.2e-4,-3.77943 -1.358,-6.98012 -4.08836,-9.61399 -2.73061,-2.63361 -5.93816,-3.95441 -9.62451,-3.95454 -0.13746,0 -0.27189,0.007 -0.40783,0.0106 -0.13442,-0.003 -0.27192,-0.0106 -0.40782,-0.0106 z M 362.47403,414.417 c -0.83381,3e-5 -1.5873,0.0923 -2.2634,0.27238 a 11.694129,11.571039 0 0 0 -1.33561,-0.0504 11.694129,11.571039 0 0 0 -11.4087,11.83339 l 0.24469,26.98575 a 11.694129,11.571039 0 0 0 8.21753,11.25835 l 0,3.37955 0,1.02897 17.39344,-0.5044 17.40363,0.5044 0,-1.02897 0,-3.89403 a 11.694129,11.571039 0 0 0 6.85135,-10.95571 l -0.24469,-26.98577 a 11.694129,11.571039 0 0 0 -10.99068,-11.59128 c -0.65079,-0.16306 -1.36776,-0.25218 -2.16143,-0.25219 l -21.70613,0 z"
       id="path20631-3-1"
       style="font-size:40px;font-style:normal;font-variant:normal;font-weight:normal;font-stretch:normal;text-align:start;line-height:125%;writing-mode:lr-tb;text-anchor:start;fill:#ffffff;fill-opacity:1;stroke:#ffffff;stroke-width:0.53262103;stroke-linecap:round;stroke-linejoin:round;stroke-opacity:1;font-family:NPSPICT3;-inkscape-font-specification:NPSPICT3" />
  </g>
</svg>
