<?xml version="1.0" encoding="UTF-8" standalone="no"?>
<!-- Created with Inkscape (http://www.inkscape.org/) -->

<svg
   xmlns:dc="http://purl.org/dc/elements/1.1/"
   xmlns:cc="http://creativecommons.org/ns#"
   xmlns:rdf="http://www.w3.org/1999/02/22-rdf-syntax-ns#"
   xmlns:svg="http://www.w3.org/2000/svg"
   xmlns="http://www.w3.org/2000/svg"
   version="1.0"
   width="580"
   height="580"
   id="svg2">
  <defs
     id="defs22" />
  <metadata
     id="metadata10">
    <rdf:RDF>
      <cc:Work
         rdf:about="">
        <dc:format>image/svg+xml</dc:format>
        <dc:type
           rdf:resource="http://purl.org/dc/dcmitype/StillImage" />
        <cc:license
           rdf:resource="http://web.resource.org/cc/PublicDomain" />
        <dc:language>en</dc:language>
        <dc:title></dc:title>
      </cc:Work>
    </rdf:RDF>
  </metadata>
  <g
     id="g1327">
    <path
       d="M 66.275,1.768 C 24.94,1.768 1.704,23.139 1.704,66.804 l 0,450.123 c 0,40.844 20.894,62.229 62.192,62.229 l 452.024,0 c 41.307,0 62.229,-20.316 62.229,-62.229 l 0,-450.123 c 0,-42.601 -20.922,-65.036 -63.522,-65.036 -0.003,0 -448.494,-0.143 -448.352,0 z"
       id="path1329"
       style="fill:#111111;stroke:#eeeeee;stroke-width:3.40799999" />
  </g>
  <g
     transform="translate(879.29125,36.805119)"
     id="g2319">
    <path
       d=""
       id="path2323"
       style="fill:#ffffff;stroke:none" />
  </g>
  <g
     transform="translate(879.29125,36.805119)"
     id="g2325">
    <path
       d=""
       id="path2329"
       style="fill:#ffffff;stroke:none" />
  </g>
  <path
     d="m 49.755618,424.59749 0,-369.87536 139.523252,0 c 24.55723,3.6e-4 43.3117,1.17778 56.26345,3.53223 18.16552,3.02799 33.38775,8.78889 45.66674,17.28272 12.27842,8.49452 22.16026,20.39477 29.64553,35.70078 7.48466,15.30665 11.22714,32.12679 11.22746,50.46049 -3.2e-4,31.45393 -10.00831,58.07181 -30.02399,79.85372 -20.01626,21.78227 -56.17958,32.67332 -108.49005,32.67317 l -94.865722,0 0,150.37225 -48.94667,0 z m 48.94667,-194.02058 95.622632,0 c 31.62169,2e-4 54.07658,-5.88685 67.36475,-17.66117 13.28766,-11.77389 19.93162,-28.34173 19.93189,-49.70358 -2.7e-4,-15.47427 -3.91095,-28.72013 -11.73206,-39.73763 -7.82163,-11.0169 -18.12397,-18.29161 -30.90705,-21.82415 -8.2421,-2.1863 -23.46433,-3.27961 -45.66674,-3.27993 l -94.613422,0 0,132.20646 z"
     id="text2419"
     style="font-size:143.53205872px;font-style:normal;font-weight:normal;fill:#ffffff;fill-opacity:1;stroke:none;font-family:Bitstream Vera Sans" />
  <path
     d="m 386.56183,279.90353 c 0.33856,0 0.69028,0.013 1.03237,0.0156 0.34446,-0.003 0.6915,-0.0156 1.03238,-0.0156 l -2.06475,0 z m 1.03237,0.0156 c -24.03852,0.19046 -56.60736,6.95897 -70.20122,12.62308 -13.78866,5.74527 -22.98387,11.49331 -25.8562,25.8562 l -10.33935,79.63334 0,109.71289 17.81621,0 0,17.20618 c 0,20.9791 30.68958,20.97909 30.68958,0 l 0,-17.20618 56.68655,0 0.17206,0 58.92337,0 0,17.20618 c 0,20.9791 30.70521,20.97909 30.70521,0 l 0,-17.20618 17.81622,0 0,-109.71289 -10.33936,-79.63334 c -2.87233,-14.36286 -12.06753,-20.1109 -25.85619,-25.85617 -13.59519,-5.66467 -46.17766,-12.4339 -70.21688,-12.62309 z m -43.76627,20.09995 42.7339,0 44.81429,0 c 8.61822,0 8.61822,12.92028 0,12.92028 l -44.90813,0 -42.64006,0 c -8.61821,0 -8.61821,-12.92028 0,-12.92028 z m -23.24398,25.98134 65.88404,0 68.13648,0 c 9.10372,0 11.48651,4.62102 12.5918,11.63764 l 8.05562,57.7502 c 0.75045,5.53548 -0.86147,11.0276 -8.50924,11.0276 l -80.18082,0 -78.11606,0 c -7.64778,0 -9.24405,-5.49212 -8.4936,-11.0276 l 8.05562,-57.7502 c 1.1053,-7.01662 3.47243,-11.63764 12.57616,-11.63764 z m -6.20987,117.89366 c 8.13269,0 14.71911,6.60205 14.71911,14.73475 0,8.1327 -6.58642,14.71911 -14.71911,14.71911 -8.1327,0 -14.73475,-6.58641 -14.73475,-14.71911 0,-8.13269 6.60205,-14.73475 14.73475,-14.73475 z m 146.4559,0 c 8.1327,0 14.7191,6.60206 14.71911,14.73475 0,8.1327 -6.58641,14.71911 -14.71911,14.71911 -8.1327,0 -14.73475,-6.58641 -14.73475,-14.71911 0,-8.1327 6.60206,-14.73475 14.73475,-14.73475 z"
     id="path2115"
     style="fill:#ffffff;stroke:none" />
</svg>
